<mxfile host="Electron" agent="Mozilla/5.0 (Windows NT 10.0; Win64; x64) AppleWebKit/537.36 (KHTML, like Gecko) draw.io/24.7.17 Chrome/128.0.6613.36 Electron/32.0.1 Safari/537.36" version="24.7.17">
  <diagram name="Page-1" id="58cdce13-f638-feb5-8d6f-7d28b1aa9fa0">
    <mxGraphModel dx="2266" dy="909" grid="1" gridSize="10" guides="1" tooltips="1" connect="1" arrows="1" fold="1" page="1" pageScale="1" pageWidth="1100" pageHeight="850" background="none" math="0" shadow="0">
      <root>
        <mxCell id="0" />
        <mxCell id="1" parent="0" />
        <mxCell id="PvtSx2TE44ImXU76YJWu-1" value="" style="ellipse;html=1;shape=startState;rounded=1;shadow=0;comic=0;labelBackgroundColor=none;fontFamily=Verdana;fontSize=12;align=center;direction=south;strokeColor=#FFFFFF;fillColor=default;" parent="1" vertex="1">
          <mxGeometry x="120" y="122" width="40" height="40" as="geometry" />
        </mxCell>
        <mxCell id="PvtSx2TE44ImXU76YJWu-2" value="" style="endArrow=classic;html=1;rounded=0;" parent="1" edge="1">
          <mxGeometry width="50" height="50" relative="1" as="geometry">
            <mxPoint x="160" y="142" as="sourcePoint" />
            <mxPoint x="200" y="142" as="targetPoint" />
          </mxGeometry>
        </mxCell>
        <mxCell id="PvtSx2TE44ImXU76YJWu-3" value="Wait" style="rounded=1;whiteSpace=wrap;html=1;" parent="1" vertex="1">
          <mxGeometry x="200" y="122" width="80" height="40" as="geometry" />
        </mxCell>
        <mxCell id="PvtSx2TE44ImXU76YJWu-15" style="edgeStyle=orthogonalEdgeStyle;rounded=0;orthogonalLoop=1;jettySize=auto;html=1;exitX=1;exitY=0.5;exitDx=0;exitDy=0;entryX=0.5;entryY=0;entryDx=0;entryDy=0;" parent="1" source="PvtSx2TE44ImXU76YJWu-4" target="PvtSx2TE44ImXU76YJWu-13" edge="1">
          <mxGeometry relative="1" as="geometry" />
        </mxCell>
        <mxCell id="PvtSx2TE44ImXU76YJWu-4" value="Set up" style="rounded=1;whiteSpace=wrap;html=1;" parent="1" vertex="1">
          <mxGeometry x="320" y="262" width="80" height="40" as="geometry" />
        </mxCell>
        <mxCell id="PvtSx2TE44ImXU76YJWu-5" value="Battle" style="rounded=1;whiteSpace=wrap;html=1;" parent="1" vertex="1">
          <mxGeometry x="440" y="402" width="80" height="40" as="geometry" />
        </mxCell>
        <mxCell id="H67oRbjdkQPqhBt0_Uks-5" style="edgeStyle=orthogonalEdgeStyle;rounded=0;orthogonalLoop=1;jettySize=auto;html=1;entryX=0.5;entryY=1;entryDx=0;entryDy=0;strokeColor=#FF0000;" edge="1" parent="1" source="PvtSx2TE44ImXU76YJWu-6" target="H67oRbjdkQPqhBt0_Uks-4">
          <mxGeometry relative="1" as="geometry" />
        </mxCell>
        <mxCell id="PvtSx2TE44ImXU76YJWu-6" value="Animation" style="rounded=1;whiteSpace=wrap;html=1;strokeColor=#FF0000;fontColor=#FF0000;" parent="1" vertex="1">
          <mxGeometry x="440" y="600" width="80" height="40" as="geometry" />
        </mxCell>
        <mxCell id="PvtSx2TE44ImXU76YJWu-7" value="Game over" style="rounded=1;whiteSpace=wrap;html=1;" parent="1" vertex="1">
          <mxGeometry x="640" y="700" width="80" height="40" as="geometry" />
        </mxCell>
        <mxCell id="PvtSx2TE44ImXU76YJWu-8" value="" style="rhombus;whiteSpace=wrap;html=1;" parent="1" vertex="1">
          <mxGeometry x="340" y="192" width="40" height="20" as="geometry" />
        </mxCell>
        <mxCell id="PvtSx2TE44ImXU76YJWu-9" value="" style="endArrow=classic;html=1;rounded=0;entryX=0.5;entryY=0;entryDx=0;entryDy=0;" parent="1" target="PvtSx2TE44ImXU76YJWu-8" edge="1">
          <mxGeometry width="50" height="50" relative="1" as="geometry">
            <mxPoint x="280" y="142" as="sourcePoint" />
            <mxPoint x="330" y="92" as="targetPoint" />
            <Array as="points">
              <mxPoint x="360" y="142" />
            </Array>
          </mxGeometry>
        </mxCell>
        <mxCell id="PvtSx2TE44ImXU76YJWu-10" value="" style="endArrow=classic;html=1;rounded=0;" parent="1" edge="1">
          <mxGeometry width="50" height="50" relative="1" as="geometry">
            <mxPoint x="360" y="212" as="sourcePoint" />
            <mxPoint x="360" y="262" as="targetPoint" />
          </mxGeometry>
        </mxCell>
        <mxCell id="PvtSx2TE44ImXU76YJWu-11" value="" style="endArrow=classic;html=1;rounded=0;entryX=0.5;entryY=1;entryDx=0;entryDy=0;exitX=0;exitY=0.5;exitDx=0;exitDy=0;" parent="1" source="PvtSx2TE44ImXU76YJWu-8" target="PvtSx2TE44ImXU76YJWu-3" edge="1">
          <mxGeometry width="50" height="50" relative="1" as="geometry">
            <mxPoint x="330" y="322" as="sourcePoint" />
            <mxPoint x="380" y="272" as="targetPoint" />
            <Array as="points">
              <mxPoint x="240" y="202" />
            </Array>
          </mxGeometry>
        </mxCell>
        <mxCell id="PvtSx2TE44ImXU76YJWu-16" style="edgeStyle=orthogonalEdgeStyle;rounded=0;orthogonalLoop=1;jettySize=auto;html=1;exitX=0.5;exitY=1;exitDx=0;exitDy=0;entryX=0.5;entryY=0;entryDx=0;entryDy=0;" parent="1" source="PvtSx2TE44ImXU76YJWu-13" target="PvtSx2TE44ImXU76YJWu-5" edge="1">
          <mxGeometry relative="1" as="geometry" />
        </mxCell>
        <mxCell id="PvtSx2TE44ImXU76YJWu-17" style="edgeStyle=orthogonalEdgeStyle;rounded=0;orthogonalLoop=1;jettySize=auto;html=1;exitX=0;exitY=0.5;exitDx=0;exitDy=0;entryX=0.5;entryY=1;entryDx=0;entryDy=0;" parent="1" source="PvtSx2TE44ImXU76YJWu-13" target="PvtSx2TE44ImXU76YJWu-4" edge="1">
          <mxGeometry relative="1" as="geometry" />
        </mxCell>
        <mxCell id="PvtSx2TE44ImXU76YJWu-13" value="" style="rhombus;whiteSpace=wrap;html=1;" parent="1" vertex="1">
          <mxGeometry x="460" y="337" width="40" height="20" as="geometry" />
        </mxCell>
        <mxCell id="PvtSx2TE44ImXU76YJWu-20" style="edgeStyle=orthogonalEdgeStyle;rounded=0;orthogonalLoop=1;jettySize=auto;html=1;entryX=0.5;entryY=0;entryDx=0;entryDy=0;strokeColor=#FF0000;" parent="1" edge="1" target="PvtSx2TE44ImXU76YJWu-36">
          <mxGeometry relative="1" as="geometry">
            <mxPoint x="520" y="421" as="sourcePoint" />
            <mxPoint x="600" y="480" as="targetPoint" />
          </mxGeometry>
        </mxCell>
        <mxCell id="PvtSx2TE44ImXU76YJWu-24" value="addPlayer(id)" style="text;html=1;align=center;verticalAlign=middle;whiteSpace=wrap;rounded=0;" parent="1" vertex="1">
          <mxGeometry x="370" y="140" width="80" height="30" as="geometry" />
        </mxCell>
        <mxCell id="PvtSx2TE44ImXU76YJWu-25" value="[players.size() = 2] / send GameDetail messages" style="text;html=1;align=center;verticalAlign=middle;whiteSpace=wrap;rounded=0;" parent="1" vertex="1">
          <mxGeometry x="370" y="220" width="280" height="30" as="geometry" />
        </mxCell>
        <mxCell id="PvtSx2TE44ImXU76YJWu-26" value="[otherwise]" style="text;html=1;align=center;verticalAlign=middle;whiteSpace=wrap;rounded=0;" parent="1" vertex="1">
          <mxGeometry x="240" y="200" width="60" height="30" as="geometry" />
        </mxCell>
        <mxCell id="PvtSx2TE44ImXU76YJWu-28" value="received MapMessage" style="text;html=1;align=center;verticalAlign=middle;whiteSpace=wrap;rounded=0;" parent="1" vertex="1">
          <mxGeometry x="480" y="290" width="130" height="30" as="geometry" />
        </mxCell>
        <mxCell id="PvtSx2TE44ImXU76YJWu-29" value="[readyPlayers.size() = 2]" style="text;html=1;align=center;verticalAlign=middle;whiteSpace=wrap;rounded=0;" parent="1" vertex="1">
          <mxGeometry x="480" y="357" width="150" height="30" as="geometry" />
        </mxCell>
        <mxCell id="PvtSx2TE44ImXU76YJWu-30" value="[otherwise]" style="text;html=1;align=center;verticalAlign=middle;whiteSpace=wrap;rounded=0;" parent="1" vertex="1">
          <mxGeometry x="360" y="350" width="60" height="30" as="geometry" />
        </mxCell>
        <mxCell id="PvtSx2TE44ImXU76YJWu-31" value="received ShootMessage" style="text;html=1;align=center;verticalAlign=middle;whiteSpace=wrap;rounded=0;fontColor=#FF0000;" parent="1" vertex="1">
          <mxGeometry x="690" y="430" width="140" height="30" as="geometry" />
        </mxCell>
        <mxCell id="PvtSx2TE44ImXU76YJWu-33" value="" style="endArrow=classic;html=1;rounded=0;exitX=0.5;exitY=1;exitDx=0;exitDy=0;entryX=0.5;entryY=0;entryDx=0;entryDy=0;strokeColor=#FFFFFF;" parent="1" target="PvtSx2TE44ImXU76YJWu-7" edge="1">
          <mxGeometry width="50" height="50" relative="1" as="geometry">
            <mxPoint x="720" y="610" as="sourcePoint" />
            <mxPoint x="750" y="510" as="targetPoint" />
          </mxGeometry>
        </mxCell>
        <mxCell id="H67oRbjdkQPqhBt0_Uks-1" style="edgeStyle=orthogonalEdgeStyle;rounded=0;orthogonalLoop=1;jettySize=auto;html=1;entryX=0.5;entryY=0;entryDx=0;entryDy=0;strokeColor=#FF0000;" edge="1" parent="1" source="PvtSx2TE44ImXU76YJWu-36" target="PvtSx2TE44ImXU76YJWu-7">
          <mxGeometry relative="1" as="geometry" />
        </mxCell>
        <mxCell id="H67oRbjdkQPqhBt0_Uks-3" style="edgeStyle=orthogonalEdgeStyle;rounded=0;orthogonalLoop=1;jettySize=auto;html=1;entryX=1;entryY=0.5;entryDx=0;entryDy=0;strokeColor=#FF0000;" edge="1" parent="1" source="PvtSx2TE44ImXU76YJWu-36" target="PvtSx2TE44ImXU76YJWu-6">
          <mxGeometry relative="1" as="geometry" />
        </mxCell>
        <mxCell id="PvtSx2TE44ImXU76YJWu-36" value="" style="rhombus;whiteSpace=wrap;html=1;strokeColor=#FF0000;" parent="1" vertex="1">
          <mxGeometry x="660" y="610" width="40" height="20" as="geometry" />
        </mxCell>
        <mxCell id="PvtSx2TE44ImXU76YJWu-41" value="received AnimationMessage&amp;nbsp;" style="text;html=1;align=center;verticalAlign=middle;whiteSpace=wrap;rounded=0;fontColor=#FF0000;" parent="1" vertex="1">
          <mxGeometry x="480" y="560" width="170" height="30" as="geometry" />
        </mxCell>
        <mxCell id="PvtSx2TE44ImXU76YJWu-43" value="[waitPlayers.size() = 2] / waitPlayers.clear()" style="text;html=1;align=center;verticalAlign=middle;whiteSpace=wrap;rounded=0;fontColor=#FF0000;" parent="1" vertex="1">
          <mxGeometry x="315" y="470" width="185" height="30" as="geometry" />
        </mxCell>
        <mxCell id="PvtSx2TE44ImXU76YJWu-44" value="[otherwise]" style="text;html=1;align=center;verticalAlign=middle;whiteSpace=wrap;rounded=0;fontColor=#FF0000;" parent="1" vertex="1">
          <mxGeometry x="570" y="620" width="60" height="30" as="geometry" />
        </mxCell>
        <mxCell id="H67oRbjdkQPqhBt0_Uks-6" style="edgeStyle=orthogonalEdgeStyle;rounded=0;orthogonalLoop=1;jettySize=auto;html=1;entryX=0.5;entryY=1;entryDx=0;entryDy=0;" edge="1" parent="1" source="H67oRbjdkQPqhBt0_Uks-4" target="PvtSx2TE44ImXU76YJWu-5">
          <mxGeometry relative="1" as="geometry" />
        </mxCell>
        <mxCell id="H67oRbjdkQPqhBt0_Uks-8" style="edgeStyle=orthogonalEdgeStyle;rounded=0;orthogonalLoop=1;jettySize=auto;html=1;entryX=0;entryY=0.5;entryDx=0;entryDy=0;strokeColor=#FF0000;" edge="1" parent="1" source="H67oRbjdkQPqhBt0_Uks-4" target="PvtSx2TE44ImXU76YJWu-6">
          <mxGeometry relative="1" as="geometry">
            <Array as="points">
              <mxPoint x="350" y="530" />
              <mxPoint x="350" y="620" />
            </Array>
          </mxGeometry>
        </mxCell>
        <mxCell id="H67oRbjdkQPqhBt0_Uks-4" value="" style="rhombus;whiteSpace=wrap;html=1;strokeColor=#FF0000;" vertex="1" parent="1">
          <mxGeometry x="460" y="520" width="40" height="20" as="geometry" />
        </mxCell>
        <mxCell id="H67oRbjdkQPqhBt0_Uks-7" value="[game over]" style="text;html=1;align=center;verticalAlign=middle;whiteSpace=wrap;rounded=0;fontColor=#FF0000;" vertex="1" parent="1">
          <mxGeometry x="690" y="650" width="70" height="30" as="geometry" />
        </mxCell>
        <mxCell id="H67oRbjdkQPqhBt0_Uks-9" value="[otherwise]" style="text;html=1;align=center;verticalAlign=middle;whiteSpace=wrap;rounded=0;fontColor=#FF0000;" vertex="1" parent="1">
          <mxGeometry x="280" y="550" width="60" height="30" as="geometry" />
        </mxCell>
      </root>
    </mxGraphModel>
  </diagram>
</mxfile>
